<svg width="1024" height="1024" viewBox="0 0 1024 1024" fill="none" xmlns="http://www.w3.org/2000/svg">
<rect width="1024" height="1024" fill="white"/>
<path fill-rule="evenodd" clip-rule="evenodd" d="M643.531 693.47C689.089 665.747 719.05 610.949 730.965 562.539C741.161 518.915 738.196 473.247 722.447 431.306C719.963 424.77 716.775 418.615 712.885 412.84C710.932 409.705 716.478 395.786 718.642 390.255L719.267 388.627C732.437 354.27 745.299 319.797 757.85 285.209C760.194 279.688 761.93 273.976 763.057 268.074L764.72 265.417C765.322 264.139 764.981 263.758 763.697 264.272C727.655 275.659 691.042 287.96 653.858 301.175C641.685 305.52 629.068 309.368 616.009 312.72C614.683 313.058 613.322 313.236 611.955 313.25C611.132 313.257 610.334 312.969 609.707 312.437C570.087 283.09 458.148 285.096 400.13 319.471C371.581 335.931 346.84 358.249 327.535 384.956C308.229 411.664 294.797 442.156 288.12 474.426C279.673 521.071 286.066 569.191 306.401 612.012C322.773 647.983 298.574 690.973 277.964 727.654C271.054 739.951 264.295 751.495 259.944 761.818C259.627 763.184 260.052 763.614 261.219 763.108C279.807 756.881 298.287 750.34 316.657 743.485C345.743 732.68 374.864 722.007 404.907 714.073C408.486 713.103 411.429 714.51 413.998 715.983L417.615 717.777C454.651 731.116 494.235 735.856 533.374 731.639C572.512 727.422 610.187 714.392 643.531 693.47ZM409.394 646.405C416.731 645.127 422.166 644.969 428.942 648.965C447.918 659.759 468.876 666.616 490.562 669.126C512.248 671.636 534.218 669.747 555.158 663.574C576.098 657.4 595.578 647.068 612.434 633.194C629.29 619.321 643.176 602.191 653.262 582.83C664.831 559.193 670.418 533.077 669.531 506.775C668.645 480.474 661.312 454.793 648.177 431.99C645.246 427.875 642.13 423.206 642.982 419.525L655.668 369.234C655.509 369.013 655.29 368.845 655.036 368.749C654.782 368.653 654.505 368.635 654.241 368.696C635.622 375.595 619.307 379.451 604.972 380.635C597.769 381.094 592.919 378.034 587.684 374.865C562.528 362.021 534.543 355.717 506.31 356.535C478.076 357.353 450.503 365.267 426.133 379.546C422.659 381.556 419.867 383.985 416.834 386.444L411.606 390.778C352.15 434.543 336.989 514.925 365.179 578.996C366.301 581.822 367.956 584.646 369.621 587.503C373.574 594.47 377.803 601.932 377.015 609.26C375.352 625.238 371.539 640.918 365.681 655.876C365.738 656.247 365.915 656.59 366.185 656.85C366.455 657.111 366.803 657.277 367.176 657.321C367.431 657.607 367.928 657.472 368.293 657.374C381.667 652.372 395.478 648.626 409.547 646.185L409.394 646.405Z" fill="black"/>
<path d="M230.963 487.579C236.7 486.194 242.101 483.673 246.847 480.164C251.592 476.656 255.587 472.231 258.593 467.153C261.6 462.074 263.557 456.444 264.351 450.596C265.144 444.748 264.757 438.8 263.212 433.104C261.668 427.407 258.997 422.079 255.357 417.433C251.718 412.787 247.184 408.917 242.023 406.054C236.863 403.19 231.181 401.39 225.312 400.76C219.444 400.13 213.509 400.683 207.859 402.386C196.851 405.703 187.571 413.183 181.993 423.236C176.414 433.289 174.976 445.121 177.986 456.217C180.995 467.313 188.213 476.798 198.107 482.654C208 488.511 219.787 490.278 230.963 487.579Z" fill="black"/>
</svg>
